<?xml version="1.0" standalone="no"?>
<!DOCTYPE svg PUBLIC "-//W3C//DTD SVG 20010904//EN"
 "http://www.w3.org/TR/2001/REC-SVG-20010904/DTD/svg10.dtd">
<svg version="1.0" xmlns="http://www.w3.org/2000/svg"
 width="480.000000pt" height="480.000000pt" viewBox="0 0 480.000000 480.000000"
 preserveAspectRatio="xMidYMid meet">
<metadata>
Created by potrace 1.14, written by Peter Selinger 2001-2017
</metadata>
<g transform="translate(0.000000,480.000000) scale(0.100000,-0.100000)"
fill="#000000" stroke="none">
<path d="M2205 4794 c-332 -33 -610 -112 -882 -249 -629 -318 -1088 -892
-1254 -1569 -50 -206 -63 -327 -63 -576 0 -255 14 -379 68 -594 215 -847 885
-1517 1732 -1732 215 -54 339 -68 594 -68 255 0 379 14 594 68 853 216 1528
896 1737 1750 50 208 63 327 63 581 0 252 -12 361 -64 573 -41 170 -92 307
-175 477 -239 487 -614 862 -1100 1100 -228 112 -447 180 -700 220 -96 15
-463 28 -550 19z m-635 -1759 c140 -404 257 -731 261 -727 4 4 120 333 257
732 l250 725 191 3 191 2 0 -1370 0 -1370 -210 0 -210 0 -2 843 -3 842 -193
-583 -194 -583 -96 3 -97 3 -39 115 c-21 63 -102 311 -181 550 l-143 435 -1
-812 -1 -813 -215 0 -215 0 0 1370 0 1370 198 0 197 0 255 -735z m2418 578
l-3 -158 -367 -3 -368 -2 0 -470 0 -470 315 0 315 0 0 -160 0 -160 -315 0
-315 0 0 -580 0 -580 -215 0 -215 0 0 1370 0 1370 585 0 586 0 -3 -157z"/>
</g>
</svg>
